HIERARCHY
ROOT reference
{
  OFFSET 0 0 0
  CHANNELS 6 Xposition Yposition Zposition Zrotation Xrotation Yrotation
  JOINT Hips
  {
    OFFSET -4.61953 83.4392 65.4584
    CHANNELS 6 Xposition Yposition Zposition Zrotation Xrotation Yrotation
    JOINT Spine
    {
      OFFSET 0 7.52385 0
      CHANNELS 6 Xposition Yposition Zposition Zrotation Xrotation Yrotation
      JOINT Spine1
      {
        OFFSET 0 21.7843 0
        CHANNELS 6 Xposition Yposition Zposition Zrotation Xrotation Yrotation
        JOINT Neck
        {
          OFFSET 0 21.6948 1.97225
          CHANNELS 6 Xposition Yposition Zposition Zrotation Xrotation Yrotation
          JOINT Head
          {
            OFFSET 0 12.8456 -1.83509
            CHANNELS 6 Xposition Yposition Zposition Zrotation Xrotation Yrotation
            End Site
            {
              OFFSET 0 22.9386 0
            }
          }
        }
        JOINT LeftShoulder
        {
          OFFSET 3.65748 19.7052 -0.211895
          CHANNELS 6 Xposition Yposition Zposition Zrotation Xrotation Yrotation
          JOINT LeftArm
          {
            OFFSET 11.1953 0 0
            CHANNELS 6 Xposition Yposition Zposition Zrotation Xrotation Yrotation
            JOINT LeftForeArm
            {
              OFFSET 29.6607 0 0
              CHANNELS 6 Xposition Yposition Zposition Zrotation Xrotation Yrotation
              JOINT LeftHand
              {
                OFFSET 23.3476 0 0
                CHANNELS 6 Xposition Yposition Zposition Zrotation Xrotation Yrotation
                End Site
                {
                  OFFSET 13.7631 0 0
                }
              }
            }
          }
        }
        JOINT RightShoulder
        {
          OFFSET -3.68053 19.7052 -0.211895
          CHANNELS 6 Xposition Yposition Zposition Zrotation Xrotation Yrotation
          JOINT RightArm
          {
            OFFSET -11.1953 0 0
            CHANNELS 6 Xposition Yposition Zposition Zrotation Xrotation Yrotation
            JOINT RightForeArm
            {
              OFFSET -29.6607 0 0
              CHANNELS 6 Xposition Yposition Zposition Zrotation Xrotation Yrotation
              JOINT RightHand
              {
                OFFSET -23.3476 0 0
                CHANNELS 6 Xposition Yposition Zposition Zrotation Xrotation Yrotation
                End Site
                {
                  OFFSET -13.7631 0 0
                }
              }
            }
          }
        }
      }
    }
    JOINT LeftUpLeg
    {
      OFFSET 9.17543 0 0
      CHANNELS 6 Xposition Yposition Zposition Zrotation Xrotation Yrotation
      JOINT LeftLeg
      {
        OFFSET 0 -39.1216 0
        CHANNELS 6 Xposition Yposition Zposition Zrotation Xrotation Yrotation
        JOINT LeftFoot
        {
          OFFSET 0 -35.3569 0
          CHANNELS 6 Xposition Yposition Zposition Zrotation Xrotation Yrotation
          JOINT LeftToeBase
          {
            OFFSET 0 -5.96403 13.7631
            CHANNELS 6 Xposition Yposition Zposition Zrotation Xrotation Yrotation
            End Site
            {
              OFFSET 0 0 3.67017
            }
          }
        }
      }
    }
    JOINT RightUpLeg
    {
      OFFSET -9.17543 0 0
      CHANNELS 6 Xposition Yposition Zposition Zrotation Xrotation Yrotation
      JOINT RightLeg
      {
        OFFSET 0 -39.1216 0
        CHANNELS 6 Xposition Yposition Zposition Zrotation Xrotation Yrotation
        JOINT RightFoot
        {
          OFFSET 0 -35.3569 0
          CHANNELS 6 Xposition Yposition Zposition Zrotation Xrotation Yrotation
          JOINT RightToeBase
          {
            OFFSET 0 -5.96403 13.7631
            CHANNELS 6 Xposition Yposition Zposition Zrotation Xrotation Yrotation
            End Site
            {
              OFFSET 0 0 3.67017
            }
          }
        }
      }
    }
  }
}
MOTION
Frames:	7
Frame Time:	0.004
0 0 0 0 0 -0 -20.9951 76.1568 -213.343 -0.243984 -0.427707 5.4523 0 7.52385 0 -0.446183 -4.34506 0.307378 0 21.7843 -2.84217e-014 1.53357 -0.558391 0.331862 3.55271e-015 21.6948 1.97225 -1.96133 8.81772 -1.42454 -3.55271e-015 12.8456 -1.83509 1.45029 7.03935 -1.22882 3.65748 19.7052 -0.211895 16.2386 -2.07616 -3.13085 11.1953 0 0 -23.2493 8.42094 -1.92169 29.6607 -1.42109e-014 -2.84217e-014 2.72702 -4.55392 -4.82374 23.3476 0 0 -0.591516 -4.41851 -4.05892 -3.68053 19.7052 -0.211895 -15.951 2.12883 -1.54116 -11.1953 -2.84217e-014 -2.84217e-014 26.0557 11.7007 12.0165 -29.6607 2.84217e-014 0 -3.82477 -4.28919 7.01329 -23.3476 1.42109e-014 0 0.714004 -4.01607 6.31422 9.17543 0 -2.84217e-014 2.78504 3.04507 0.003756 -1.77636e-015 -39.1216 0 0.214119 2.78778 0.75742 0 -35.3569 0 -1.77574 -5.69019 10.9039 -7.10543e-015 -5.96403 13.7631 -4.96962e-017 1.2424e-016 -0 -9.17543 0 0 -3.05449 4.40547 1.10035 0 -39.1216 0 0.799518 2.51246 2.19929 7.10543e-015 -35.3569 -2.84217e-014 1.93477 -7.02724 -19.8733 2.84217e-014 -5.96403 13.7631 1.2424e-017 4.96962e-017 -0 
0 0 0 0 0 -0 -20.9951 76.1568 -213.33 -0.235856 -0.407569 5.51765 3.55271e-015 7.52385 0 -0.47484 -4.37088 0.297002 0 21.7843 -2.84217e-014 1.56693 -0.547592 0.322651 -3.55271e-015 21.6948 1.97225 -1.9641 8.76957 -1.41718 3.55271e-015 12.8456 -1.83509 1.45147 7.14111 -1.22089 3.65748 19.7052 -0.211895 16.2318 -2.0715 -3.12967 11.1953 0 0 -23.268 8.40371 -1.9216 29.6607 1.42109e-014 -2.84217e-014 2.73948 -4.52875 -4.83771 23.3476 2.84217e-014 0 -0.623311 -4.39135 -4.05734 -3.68053 19.7052 -0.211895 -15.9477 2.14473 -1.6178 -11.1953 0 -2.84217e-014 26.0791 11.6667 11.9174 -29.6607 1.42109e-014 0 -3.78324 -4.19732 6.88828 -23.3476 0 -2.84217e-014 0.750036 -3.92884 6.31844 9.17543 0 0 2.77165 3.01487 0.018736 -1.77636e-015 -39.1216 -2.84217e-014 0.232662 2.80158 0.680987 -1.77636e-015 -35.3569 0 -1.75771 -5.69041 10.8919 0 -5.96403 13.7631 -3.54085e-016 9.93923e-017 -3.18055e-015 -9.17543 0 0 -3.05099 4.39979 1.0562 3.55271e-015 -39.1216 0 0.799637 2.527 2.18258 0 -35.3569 0 1.90109 -7.05426 -19.8765 0 -5.96403 13.7631 1.37935e-033 4.96962e-017 -1.59028e-015 
0 0 0 0 0 -0 -20.9925 76.1543 -213.322 -0.230453 -0.419089 5.54811 -3.55271e-015 7.52385 2.84217e-014 -0.528726 -4.4782 0.196705 3.55271e-015 21.7843 0 1.65462 -0.304084 0.221908 -3.55271e-015 21.6948 1.97225 -2.00854 8.66065 -1.33019 -3.55271e-015 12.8456 -1.83509 1.42716 7.1197 -1.12692 3.65748 19.7052 -0.211895 16.1896 -2.12908 -2.89571 11.1953 0 0 -23.2756 8.40114 -1.92159 29.6607 -1.42109e-014 0 2.75166 -4.52666 -4.8514 23.3476 2.84217e-014 0 -0.587027 -4.38983 -4.03165 -3.68053 19.7052 -0.211895 -15.9591 1.96089 -1.43569 -11.1953 -2.84217e-014 0 26.067 11.6585 11.7887 -29.6607 2.84217e-014 0 -3.76454 -4.16814 6.81177 -23.3476 0 -2.84217e-014 0.780778 -3.90154 6.33003 9.17543 1.42109e-014 2.84217e-014 2.771 3.04282 0.014641 0 -39.1216 2.84217e-014 0.223031 2.76801 0.688319 1.77636e-015 -35.3569 0 -1.77223 -5.68154 10.8671 7.10543e-015 -5.96403 13.7631 -2.17421e-016 -2.48481e-017 -0 -9.17543 1.42109e-014 0 -3.04873 4.42469 1.04687 3.55271e-015 -39.1216 0 0.787672 2.52292 2.14083 0 -35.3569 0 1.91798 -7.06807 -19.8571 0 -5.96403 13.7631 -3.72721e-017 0 -0 
0 0 0 0 0 -0 -20.9898 76.153 -213.314 -0.223735 -0.396714 5.58819 -3.55271e-015 7.52385 2.84217e-014 -0.537453 -4.51007 0.189819 0 21.7843 0 1.65206 -0.289543 0.215473 0 21.6948 1.97225 -1.9948 8.75153 -1.33608 0 12.8456 -1.83509 1.39509 6.95915 -1.13633 3.65748 19.7052 -0.211895 16.1951 -2.12689 -2.89063 11.1953 0 0 -23.2809 8.39898 -1.92158 29.6607 1.42109e-014 0 2.76241 -4.54691 -4.84928 23.3476 -2.84217e-014 0 -0.787305 -4.4019 -4.14111 -3.68053 19.7052 -0.211895 -15.9571 1.97149 -1.48626 -11.1953 0 0 26.0737 11.6424 11.7346 -29.6607 -1.42109e-014 0 -3.65878 -4.20094 6.73732 -23.3476 0 0 0.456734 -3.96129 6.22933 9.17543 0 0 2.76394 3.01458 0.015491 3.55271e-015 -39.1216 -2.84217e-014 0.221093 2.78647 0.635249 0 -35.3569 -2.84217e-014 -1.76963 -5.68583 10.8769 0 -5.96403 13.7631 -2.54693e-016 9.93923e-017 -0 -9.17543 0 2.84217e-014 -3.05941 4.41393 1.03738 -3.55271e-015 -39.1216 -2.84217e-014 0.804332 2.52093 2.13021 0 -35.3569 0 1.93419 -7.08316 -19.8957 0 -5.96403 13.7631 1.2424e-017 4.96962e-017 1.59028e-015 
0 0 0 0 0 -0 -20.9871 76.1517 -213.308 -0.215863 -0.389556 5.61793 0 7.52385 0 -0.553213 -4.50978 0.184748 -3.55271e-015 21.7843 -2.84217e-014 1.67015 -0.300088 0.211168 0 21.6948 1.97225 -2.01637 8.67383 -1.32489 -3.55271e-015 12.8456 -1.83509 1.42903 7.11495 -1.12094 3.65748 19.7052 -0.211895 16.1828 -2.12004 -2.88604 11.1953 -2.84217e-014 2.84217e-014 -23.283 8.38503 -1.91487 29.6607 1.42109e-014 -2.84217e-014 2.76184 -4.5299 -4.84593 23.3476 -2.84217e-014 0 -0.785433 -4.38502 -4.14733 -3.68053 19.7052 -0.211895 -15.9555 1.97593 -1.52965 -11.1953 0 0 26.0789 11.6218 11.6795 -29.6607 1.42109e-014 0 -3.62632 -4.15986 6.65598 -23.3476 0 0 0.489058 -3.92291 6.23257 9.17543 1.42109e-014 -2.84217e-014 2.75488 3.00548 0.005471 -1.77636e-015 -39.1216 -2.84217e-014 0.221562 2.78696 0.623139 0 -35.3569 0 -1.75796 -5.70009 10.8784 0 -5.96403 13.7631 -3.72721e-017 1.73937e-016 3.18055e-015 -9.17543 -1.42109e-014 -2.84217e-014 -3.06643 4.42005 1.04635 -7.10543e-015 -39.1216 0 0.800443 2.52119 2.09755 0 -35.3569 2.84217e-014 1.94632 -7.10257 -19.892 0 -5.96403 13.7631 2.48481e-017 0 -1.59028e-015 
0 0 0 0 0 -0 -20.9847 76.1505 -213.302 -0.208277 -0.373262 5.64875 3.55271e-015 7.52385 0 -0.567888 -4.52718 0.180017 0 21.7843 0 1.68326 -0.300583 0.206891 0 21.6948 1.97225 -2.01579 8.69015 -1.31986 0 12.8456 -1.83509 1.4212 7.10333 -1.11656 3.65748 19.7052 -0.211895 16.1735 -2.11343 -2.88089 11.1953 0 -2.84217e-014 -23.2834 8.36213 -1.91652 29.6607 0 0 2.75237 -4.5234 -4.83334 23.3476 0 -2.84217e-014 -0.779996 -4.37946 -4.13889 -3.68053 19.7052 -0.211895 -15.9544 1.97802 -1.56105 -11.1953 0 0 26.0909 11.5802 11.6052 -29.6607 0 2.84217e-014 -3.58957 -4.12643 6.58144 -23.3476 0 -2.84217e-014 0.533652 -3.8915 6.24011 9.17543 0 0 2.74481 2.98989 0.013855 0 -39.1216 0 0.223577 2.78496 0.5896 0 -35.3569 0 -1.77759 -5.6923 10.8739 -7.10543e-015 -5.96403 13.7631 -4.22417e-016 0 3.18055e-015 -9.17543 1.42109e-014 2.84217e-014 -3.07127 4.40894 1.02839 -3.55271e-015 -39.1216 0 0.796191 2.53029 2.09242 -7.10543e-015 -35.3569 0 1.87803 -7.09855 -19.9054 1.42109e-014 -5.96403 13.7631 -6.21202e-017 4.96962e-017 -0 
0 0 0 0 0 -0 -20.9828 76.1494 -213.293 -0.20682 -0.371768 5.6864 3.55271e-015 7.52385 -2.84217e-014 -0.584067 -4.52773 0.171489 3.55271e-015 21.7843 0 1.7083 -0.30265 0.199231 0 21.6948 1.97225 -1.99945 8.71019 -1.317 0 12.8456 -1.83509 1.38055 7.08289 -1.11811 3.65748 19.7052 -0.211895 16.1541 -2.24968 -2.70709 11.1953 0 2.84217e-014 -23.2525 8.52307 -2.08918 29.6607 1.42109e-014 0 2.74739 -4.50412 -4.75917 23.3476 0 2.84217e-014 -0.932404 -4.35735 -4.05523 -3.68053 19.7052 -0.211895 -15.9524 1.97982 -1.61802 -11.1953 -2.84217e-014 2.84217e-014 26.0866 11.5242 11.5577 -29.6607 2.84217e-014 0 -3.52222 -4.08158 6.48886 -23.3476 0 0 0.548727 -3.85259 6.23391 9.17543 1.42109e-014 -2.84217e-014 2.74926 2.98806 0.026545 -1.77636e-015 -39.1216 2.84217e-014 0.226378 2.78251 0.54452 1.77636e-015 -35.3569 0 -1.73257 -5.68134 10.8715 0 -5.96403 13.7631 1.55301e-016 7.45443e-017 -0 -9.17543 1.42109e-014 0 -3.07254 4.42266 1.03982 -3.55271e-015 -39.1216 0 0.796686 2.55064 2.26037 0 -35.3569 0 1.88582 -7.14928 -20.1049 0 -5.96403 13.7631 -2.48481e-017 -4.96962e-017 -1.59028e-015 
